<?xml version="1.0" encoding="UTF-8"?>
<svg id="Layer_2" data-name="Layer 2" xmlns="http://www.w3.org/2000/svg" viewBox="0 0 550.03 422.34">
  <defs>
    <style>
      .cls-1 {
        fill: #c1cac5;
      }

      .cls-2 {
        fill: #3f4d4e;
      }

      .cls-3 {
        fill: #d2a85c;
      }

      .cls-4 {
        fill: #1a2e37;
      }
    </style>
  </defs>
  <g id="Layer_1-2" data-name="Layer 1">
    <path class="cls-4" d="M277.53,359.18c4.5-4.06,9.05-8.06,13.48-12.18,35.87-33.38,63.99-71.46,81.09-116.17,6.6-17.26,11.33-34.95,14.1-53.11,1.67-10.94,2.63-21.91,3.19-32.94.1-2.03-.61-2.98-2.67-3.75-20.22-7.5-41.15-12.42-62.61-15.66-19.93-3.01-39.98-4.2-60.11-3.47-34.65,1.25-68.32,7.18-100.67,19.05-2.23.82-2.82,1.9-2.75,3.98,1.11,31.04,7.19,61.18,18.92,90.29,13.2,32.75,32.43,62.17,56.63,88.87,11.18,12.33,23.26,23.83,36,34.76-.15.15-.31.3-.46.45-10.46-4.63-20.19-10.42-29.68-16.55-50.9-32.88-82.96-77.79-98.25-133.33-4.25-15.43-7.06-31.09-8.6-46.97-1.17-12.02-1.91-24.04-1.89-36.1,0-2.18.76-3.16,2.91-3.9,14.16-4.86,27-11.77,37.69-21.78,12.78-11.96,20.67-26.24,23.2-43.03.69-4.58,1.14-9.15.96-13.84-1.88,3.89-2.97,8.05-4.85,11.93-2,4.12-4.18,8.14-6.8,11.95-2.55,3.71-5.18,7.38-8.84,10.91-2.28-5.53-3.17-10.84-2.37-16.37,1.36-9.39,6.3-17.38,11.68-25.16,4.43-6.41,8.97-12.75,12.86-19.76,2.31,1.7,3.7,3.84,5.08,5.9,10.55,15.68,13.29,31.98,3.8,48.97-3.26,5.83-8.08,10.4-14.73,13.07-.67.27-1.53.59-1.83,1.12-1.94,3.44-3.76,6.94-5.74,10.65,3.51.11,6.45-.95,9.39-1.77,13.46-3.75,24.87-10.21,32.3-21.71.77-1.19,1.68-1.61,3.15-1.61,29.24.03,58.48.04,87.72-.02,2.06,0,2.73,1.09,3.63,2.4,9.28,13.48,23.44,19.65,39.62,22.76.39.07.83-.06,1.53-.12-1.88-3.56-3.69-6.94-5.47-10.35-.32-.6-.86-.79-1.47-1.04-11.17-4.52-17.04-13.09-19.7-23.57-4.2-16.55,1.2-31.02,12.35-43.97.19-.22.51-.35,1-.68,6.24,11.85,15.64,21.92,21.2,34.08,3.8,8.31,4.66,16.79,1.57,25.48-.1.28-.17.58-.32.84-.09.17-.3.28-.74.65-9.34-10.06-15.84-21.47-19.93-34.2-.3,6.52.19,12.94,1.78,19.23,6.85,26.99,25.36,44.72,51.82,56.06,2.74,1.18,5.51,2.36,8.37,3.21,2.04.6,2.59,1.55,2.6,3.46.03,12.18-.7,24.3-1.91,36.43-2.34,23.4-7.33,46.24-15.64,68.45-13.53,36.18-35.3,67.33-65.89,93.06-16.76,14.1-35.32,25.83-55.34,35.58-.12-.14-.25-.28-.39-.41Z"/>
    <path class="cls-3" d="M446.42,165.94c3.68,9.34,7.45,18.66,10.1,28.33.13.47.21.95.4,1.78-4.15-.67-7.22-2.66-9.96-5.06-7.2-6.3-9.86-14.64-11.43-23.4-.96-5.35-.76-10.77-.83-16.17-.03-2.15.42-2.98,2.95-2.08,8.89,3.19,17.4,6.87,23.29,14.33,5.09,6.44,6.87,13.72,5.93,21.63-.49,4.11.07,7.6,2.68,13.99,1.76-6.89,3.39-13.2,4.94-19.52.22-.89-.18-1.78-.46-2.68-2.27-7.21-4.5-14.43-6.66-21.67-.37-1.22-.89-2.26-1.83-3.16-15.12-14.35-29.03-29.69-42.35-45.52-3.17-3.77-7.95-5.54-11.61-8.72-12.78-11.08-18.66-24.59-17.2-40.98.97-10.86,4.83-20.8,9.97-30.41.57-1.06.94-2.28,2.3-3.19,1.7,2.76,3.3,5.49,5.03,8.15,4.98,7.65,10.14,15.18,14.97,22.91,5.66,9.06,10.03,18.53,8.9,29.46-.31,2.97-1.15,5.79-2.15,8.59-.19.53-.62,1.27-1.08,1.38-.92.22-1.15-.73-1.51-1.31-8.5-13.75-16.45-27.75-20.75-43.29-.18-.64-.51-1.25-.95-2.29.37,18.79,7.45,35,17.69,50.18,9.29,13.76,20.69,25.87,33.05,37.21.74.67,1.35,1.63,2.78,1.59-.92-5.32-1.65-10.44-4.96-15.21-6.39-9.21-9.57-19.63-9.7-30.63-.17-15.35,6.11-28.52,16.48-40.14,4.62-5.18,9.84-9.74,15.45-13.94.75-.56,1.42-1.26,2.8-1.48.51,3.88,1,7.74,1.52,11.6,1.19,8.76,2.49,17.52,3.59,26.29,1.34,10.7,1.69,21.35-2.99,31.55-2.34,5.1-5.74,9.47-10.75,13.35-2.19-18.15-3.36-35.84-.66-53.97-11.52,12-6.9,80.3,6.48,99.14,1.06-2.56,2.3-4.78,1.81-7.59-4.58-26.55,11.45-46.58,33.74-55.61,10.4-4.21,21.26-6.1,32.56-5.82,1.45.04,2.91,0,1.42,1.92-7.68,9.97-11.55,21.57-15.92,32.97-3.02,7.87-6.39,15.58-12.29,22.06-5.23,5.75-11.77,9.51-19.38,11.75-.91.27-1.93.93-2.75.25-.91-.74-.04-1.76.19-2.55,3.61-12.16,9.32-23.43,16.56-34.02,2.22-3.25,4.53-6.43,6.8-9.65.07-.12.15-.24.22-.36-.15.05-.29.11-.44.16-9.34,5.31-15.89,13.1-21.43,21.69-8.47,13.12-13.14,27.59-16.74,42.45-3.59,14.87-4.86,30.12-8.44,44.99-6.93,28.8-18.84,55.38-38.96,78.34-2.13,2.44-4.41,4.76-6.64,7.12-.18.19-.54.23-1,.41.59-22.04,3.01-44.17-8.74-64.52,2.29,9.34,4.35,18.72,5.54,28.85-5.2-2.03-8.4-5.19-10.68-9.2-4.4-7.74-5-16.11-4.28-24.64.23-2.73.73-5.44,1.06-8.16.16-1.37.59-2.2,2.23-1.4,10.25,4.99,19.42,10.97,22.02,22.53,1.02,4.52.63,9.09-.47,13.61-1.22,4.98.65,9.79.52,15.31,2.34-1.87,3.27-3.73,4.41-5.41,1.69-2.49,3.2-5.09,4.92-7.55,4.65-6.67,7.04-13.59,5.48-21.86-2.33-12.31-5.27-24.31-12.46-35.03-.74-1.11-1.33-2.35-2.54-3.13-.15-.07-.3-.15-.45-.22.02.18.04.37.07.55,3,7.62,6.11,15.21,8.3,23.09.24.88.91,1.92.1,2.58-.85.69-1.81-.22-2.63-.6-8.37-3.89-12.32-10.86-14.46-18.93-1.68-6.34-2.22-12.84-2.06-19.38.04-1.46.07-2.83,2.29-2.07,7.89,2.71,15.43,5.93,20.8,12.41,4.41,5.32,6.17,11.41,5.51,18.03-.68,6.8,2.27,12.92,3.31,19.86,13.1-28.96,7.17-55.24-10.13-80.2-.21-.19-.59-.56-.61-.54-.43.36-.21.65.16.91ZM473.43,61.06c-.07.33-.17.52-.13.68.07.29.24.29.39.03.04-.08.07-.2.04-.27-.05-.13-.15-.23-.29-.43Z"/>
    <path class="cls-3" d="M103.08,163.8c-17.37,24.66-23.26,50.63-10.2,79.03,1.25-6.82,3.89-13.07,3.35-20.01-.8-10.33,4.07-18.23,13.45-23.8,4.04-2.4,8.38-4.16,12.86-5.66,1.21-.41,2.31-.75,2.33,1.15.08,9.41-.58,18.7-4.92,27.41-2.54,5.09-6.44,9.04-11.94,11.47-.79.35-1.78,1.31-2.58.44-.38-.41-.03-1.53.2-2.27,2.38-7.83,5.38-15.47,8.5-23.07,0-.21-.02-.43-.02-.64-.13.1-.25.2-.38.3-5.81,6.58-9.09,14.32-11.55,22.36-2.34,7.64-3.81,15.44-4.01,23.42-.02.99-.12,2.11.29,2.97,3.91,8.06,8.71,15.64,14.57,22.82.55-4.59,2.3-9.15,1.18-13.61-4.11-16.38,2.66-26.06,15.07-33.35,1-.59,2.04-1.14,3.07-1.68,5.03-2.61,5.19-2.63,5.95,2.48,1.21,8.11,1.45,16.24-1.18,24.19-2.12,6.39-6.09,11.42-13.09,14.69.18-5.45,1.62-10.35,2.42-15.32.72-4.46,2.75-8.65,2.94-13.2.11-.07.23-.13.34-.2-.07,0-.16-.04-.19-.01-.07.06-.1.15-.14.22-4.77,6.37-6.49,13.75-7.74,21.18-2.3,13.59-2.21,27.26-.78,40.93.05.46-.07.93-.16,1.98-4.18-3.62-7.36-7.4-10.51-11.17-18.42-22-29.55-47.08-36.06-74.12-3.52-14.6-4.92-29.55-8.45-44.14-4.06-16.77-9.5-33.03-20.3-47.28-4.88-6.44-10.41-12.34-17.89-16.35-.14-.06-.27-.12-.41-.18.08.11.15.23.23.34,4.12,6.13,8.73,11.98,12.39,18.38,4.54,7.93,8.3,16.15,10.91,24.8.24.78,1.03,1.82.18,2.51-.79.64-1.84.06-2.76-.21-10.85-3.13-19.03-9.29-24.61-18.51-4.22-6.97-6.89-14.52-9.74-22-3.37-8.84-7.03-17.55-12.96-25.24-1.25-1.62-1.03-2.17,1.19-2.2,18.76-.23,35.9,4.26,49.91,16.21,13.09,11.16,18.88,25.22,16.57,41.84-.48,3.47-.4,6.77,1.7,9.98,1.1-.65,1.22-1.77,1.6-2.75,5.86-15.09,9.8-30.57,11.09-46.62,1.33-16.5.41-32.75-5.37-48.56-.17-.47-.37-.94-.59-1.4-.08-.17-.26-.29-.7-.78.63,4.49,1.11,8.63,1.54,12.76.72,6.95.51,13.9.24,20.83-.25,6.42-1.16,12.81-1.8,19.22-.07.75.31,1.79-.8,2.06-.78.19-1.36-.53-1.88-1.03-6.69-6.32-10.4-13.92-11.63-22.71-1.79-12.78,1.34-25.21,2.88-37.75.79-6.47,1.7-12.92,2.6-19.66,3.66,1.74,6.39,4.33,9.21,6.73,12.4,10.59,21.75,22.92,24.54,38.77,2.39,13.55-.8,26.15-7.68,38.11-1.52,2.64-3.94,4.84-4.51,7.95-.52,2.86-1.04,5.71-1.26,8.77,13.89-11.65,26.17-24.58,36.17-39.33,10.13-14.94,16.76-30.96,17.06-48.89-4.32,15.97-12.42,30.37-21.19,44.48-.51.82-.75,2.24-1.98,2.12-1.19-.11-1.21-1.52-1.55-2.42-3.52-9.36-2.09-18.39,2.08-27.26,5.03-10.67,12.48-20.01,18.82-29.95,2.09-3.28,4.16-6.58,6.46-10.21,2.81,3.9,4.63,7.94,6.37,11.99,4.81,11.18,7.38,22.64,5.08,34.76-2.27,12.02-8.86,21.7-19.18,28.81-6.03,4.15-10.86,9.09-15.47,14.4-11.04,12.69-22.63,24.93-34.93,36.58-1.49,1.41-2.42,2.92-2.98,4.87-1.98,6.79-4.15,13.52-6.35,20.25-.49,1.49-.76,2.93-.36,4.44,1.54,5.74,3.1,11.48,4.91,17.26,1.13-3.76,3.22-7.38,2.59-11.43-2.41-15.32,5.57-26.56,18.1-32.8,3.73-1.86,7.61-3.37,11.6-4.66,1.11-.36,2.21-.75,2.26.92.41,13.33-.27,26.45-9.46,37.68-2.61,3.19-6.08,5.42-10.01,7.03-.75.31-1.61.97-2.36.27-.61-.58.06-1.31.25-1.97,2.68-9.33,6.28-18.37,10.04-27.36.33-.29.54-.6.12-.95-.03-.02-.42.34-.64.52Z"/>
    <path class="cls-4" d="M199.02,337.85c-5.02-.86-9.62-1.63-14.22-2.43-14.15-2.45-28.3-4.96-42.76-4.26-3.68.18-7.31.76-10.73,2.15-5.14,2.09-7.88,6.25-7.76,11.51.11,4.71,3.1,8.54,8.22,10.48,5.94,2.26,11.67,1.14,17.31-1.1,1.18-.47,2.3-1.06,3.92-1.82-.91,3.32-2.92,5.35-4.83,7.4-12.45,13.41-37.02,11.36-47.11-3.9-10.02-15.16-.84-35.92,17.8-40.28,11.37-2.66,22.53-1.07,33.62,1.66,15.51,3.81,29.92,10.28,43.71,18.23.9.52,1.95.87,2.82,2.36Z"/>
    <path class="cls-4" d="M400.03,353.52c4.75,2.25,9.62,4.15,15.02,3.88,3.08-.15,5.94-.91,8.56-2.59,7.58-4.86,7.34-15.25-.49-19.68-3.76-2.12-7.93-2.79-12.14-3.03-11.95-.69-23.73.97-35.47,2.9-6.59,1.09-13.16,2.33-19.74,3.48-.58.1-1.2.01-1.91.01.43-1.24,1.47-1.5,2.25-1.95,17.04-9.79,34.91-17.43,54.48-20.5,8.94-1.41,17.9-1.59,26.58,1.54,11.06,3.99,18.16,13.99,18.51,24.9.39,12.2-8.23,21.25-18.11,24.98-14.22,5.37-29.66.52-36.93-11.71-.34-.57-1.14-1.09-.59-2.23Z"/>
    <path class="cls-3" d="M302.76,366.92c7.84-4.07,16.16-6.86,24.68-9.15,11.97-3.21,24.11-5.05,36.52-4.24,8.07.52,15.92,2.23,22.26,7.66,7.84,6.71,10.68,15.48,8.14,25.36-2.48,9.62-9.75,14.77-19.09,16.87-14.62,3.29-28.25-4.04-32.66-17.68,4.42,2.96,8.7,5.28,13.7,5.75,7.32.69,15.59-3.6,14.2-12.41-.48-3.07-1.91-5.45-4.48-7.16-4.63-3.08-9.91-4.12-15.28-4.78-14.69-1.82-29.39-.85-44.1-.23-1.29.05-2.59,0-3.89,0Z"/>
    <path class="cls-3" d="M210.36,384.52c-3.59,9.43-9.41,15.3-18.38,17.6-11.22,2.88-21.26.63-29.27-8.08-9.6-10.43-6.13-30.8,9.98-37.71,4.51-1.93,9.21-3.24,14.03-3.58,22.29-1.6,43.09,4.24,62.75,12.52-7.18,0-14.86.07-22.55-.02-11.68-.13-23.38-.33-34.72,3.07-4.79,1.44-9.03,3.81-10.04,9.41-1.66,9.2,6.51,13.5,13.99,12.87,5.05-.43,9.44-2.66,14.21-6.08Z"/>
    <path class="cls-4" d="M275.04,375.79c-6.68,2.65-13.38,5.23-20.02,7.95-5.5,2.25-10.9,4.76-15.63,8.41-2.99,2.3-5.96,4.73-5.89,9.11.08,4.87,4.31,8.44,9.13,7.6,4.16-.73,7.31-3.03,9.85-6.3.64-.82.99-1.91,2.07-2.38,1.04,9.32-6.19,18.49-16.19,20.62-8.93,1.9-16.93-1.47-20.43-8.58-4.02-8.19-2.16-17.01,4.93-23.06,7.99-6.81,17.69-9.72,27.67-11.79,8.04-1.67,16.2-2.48,24.51-1.56Z"/>
    <path class="cls-4" d="M277.19,376.04c16.5.07,32.02,1.98,46.25,9.71,5.98,3.25,10.91,7.59,12.72,14.7,3.01,11.84-6.2,22.83-18.52,21.83-11.74-.95-20.58-10.51-19.65-21.77,2.1,2.82,3.9,5.48,6.69,7.19,2.27,1.39,4.67,2.42,7.32,2.11,3.04-.36,5.52-1.76,6.67-4.88,1.21-3.31.26-6.17-1.94-8.65-3.35-3.79-7.73-6.16-12.17-8.42-7.99-4.06-16.45-6.97-24.77-10.24-.77-.3-1.6-.45-2.6-1.57Z"/>
    <path class="cls-1" d="M272.13,384.5c.2.28.88.44.5.87-.3.34-.75.04-.96-.39.15-.16.31-.32.46-.48Z"/>
    <path class="cls-1" d="M277.92,385.31c-.24.02-.49.05-.73.07.12-.17.23-.34.35-.52.14.14.27.29.39.44Z"/>
    <path class="cls-2" d="M473.43,63.34c.14.21.24.33.29.46.03.08,0,.2-.04.29-.14.28-.32.28-.39-.03-.04-.17.06-.37.13-.72Z"/>
    <path class="cls-2" d="M446.42,174.58c-.37-.27-.59-.58-.16-.96.02-.02.4.38.61.57-.15.13-.3.26-.45.39Z"/>
    <path class="cls-2" d="M435.83,222.16c-.02-.19-.04-.39-.07-.58.15.08.3.15.45.23-.12.12-.25.24-.38.35Z"/>
    <path class="cls-2" d="M522.41,121.71c.15-.06.29-.11.44-.17-.07.13-.15.26-.22.38,0,0-.22-.21-.22-.21Z"/>
    <path class="cls-2" d="M103.08,174.17c.22-.2.61-.58.64-.56.42.37.2.71-.12,1.01-.17-.15-.34-.3-.51-.45Z"/>
    <path class="cls-2" d="M113.74,221.8c.13-.11.25-.22.38-.32,0,.23.01.46.02.69-.14-.11-.27-.23-.4-.36Z"/>
    <path class="cls-2" d="M129.42,260.21c.05-.08.08-.18.14-.24.03-.03.13,0,.19.01-.11.07-.23.15-.34.22,0,0,0,.01,0,.01Z"/>
    <path class="cls-4" d="M291.4,229.57c-.81-2.18-1.58-4.26-2.4-6.49,5.06,1.16,10.02,2.29,15.1,3.46-1.11.3-2.11.58-3.3.9,1.15.67,2.13,1.2,3.05,1.81.75.49,1.48,1.03,2.12,1.64,2.71,2.59,2.72,5.55.02,8.16-2.19,2.11-4.93,3.34-7.83,4.19-10.57,3.11-21.36,3.92-32.32,2.65-5.95-.69-11.75-1.99-17.21-4.41-1.8-.8-3.56-1.85-5.05-3.11-2.82-2.39-2.92-5.5-.54-8.33,1.39-1.66,3.17-2.85,5.07-3.88,3.01-1.62,6.1-3.04,9.51-3.7.67-.13,1.22-.04,1.82.35,1.98,1.3,4.02,2.53,6.03,3.79.27.17.53.34.9.58-1.9.54-3.7,1.02-5.47,1.57-2.64.82-5.01,2.06-6.72,4.25-1.4,1.79-1.56,2.61.17,4.74,1.03,1.27,2.52,1.95,4.05,2.49,6.23,2.19,12.7,2.99,19.29,3,6.67,0,13.18-1,19.44-3.22,1.52-.54,2.97-1.43,4.23-2.43,2.18-1.74,2.1-4.32.03-6.2-1.45-1.31-3.21-2.15-5.08-2.65-.82-.22-1.83.16-2.75.33-.69.12-1.37.33-2.16.53Z"/>
    <path class="cls-4" d="M264.2,213.83c3.52-9.28,6.92-18.25,10.4-27.4,3.64,9.13,7.23,18.13,10.89,27.29-2.17,0-4.21.05-6.24-.02-1.12-.04-1.4.34-1.35,1.29.29,5.92.57,11.84.8,17.76.08,2.15.01,4.31.01,6.69-1.63.06-3.47.13-5.32.18-.44.01-.89-.05-1.33-.07-2.55-.11-2.24.12-2.13-2.18.35-7.44.73-14.88,1.09-22.32.02-.34,0-.67,0-1.22h-6.83Z"/>
    <path class="cls-4" d="M268.9,289.58c.41-13.51.8-26.51,1.19-39.6h8.91c.09,1.82.21,3.64.27,5.45.33,10.93.64,21.86.99,32.79.04,1.27-.43,1.34-1,1.35-3.42.02-6.84,0-10.36,0Z"/>
    <path class="cls-3" d="M232.81,16.45c2.5,2.68,4.57,5.15,6.9,7.34,6.25,5.88,12.24,6.01,18.64.29,4.97-4.44,8.32-10.16,11.73-15.8,1.6-2.64,3.14-5.32,4.88-8.27,2.92,4.8,5.59,9.3,8.38,13.73,2.48,3.93,5.15,7.76,8.74,10.79,6,5.07,11.79,4.94,17.72-.24,2.59-2.26,4.75-4.94,7.53-8.28-.56,4.08-.95,7.29-1.46,10.48-1.26,7.9-2.01,15.82-1.89,23.83.06,3.79.48,7.52,1.16,11.23.34,1.89.07,2.77-2.14,2.76-25.32-.05-50.64-.05-75.96,0-2.2,0-2.56-.92-2.21-2.76,1.88-9.85,1.42-19.71,0-29.57-.72-4.99-1.3-10-2.01-15.52Z"/>
    <path class="cls-3" d="M295.77,156.12c.22-1.65-.32-3.32-1.31-5.08-1.44-2.57-1.09-5.34,1.03-7.42,2.11-2.07,5.1-2.66,7.09-.64,2.5,2.54,5.36,3.05,8.42,3.58,3.19.56,6.4,1.04,9.54,1.79,1.53.36,1.82-.06,1.92-1.54.21-3.25.63-6.49.93-9.74.18-1.95.75-2.48,2.88-1.99,13.09,3.01,25.8,7.27,38.37,12.04,1.93.73,3.85,1.47,5.78,2.18,2.08.76,3.95,1.57,6.4.4,2.72-1.3,5.58.27,6.79,2.96,1.22,2.72,1.21,5.79-1.28,7.28-2.96,1.76-2.95,4.45-3.33,7.08-3.49,24.56-9.14,48.5-18.69,71.33-.61,1.45-.65,2.49.27,3.96,4.21,6.73.61,14.28-7.09,14.92-1.55.13-2.29.8-2.96,2.09-12.1,23.2-27.66,43.61-46.03,61.73-1.15,1.13-1.78,2.21-1.69,4.05.17,3.69-2.75,6.63-6.04,6.57-3.17-.06-5.87-2.87-5.68-6.5.16-3.04-1.84-4.46-3.5-6.05-1.16-1.11-3.75,1.75-3.55,4.09.28,3.38-.64,6.27-3.05,8.53-2.63,2.47-6.97,3.04-10.02,1.38-3.5-1.91-5.09-5.01-5.09-9.1,0-1.04.89-2.27-.34-3.12-1-.69-1.71-2.8-2.99-1.86-1.67,1.22-3.48,2.76-3.66,5.26-.35,4.77-2.4,7.38-5.84,7.35-3.57-.03-5.63-2.65-5.81-7.72-.05-1.4-.91-1.98-1.65-2.71-18.46-18.2-34.06-38.71-46.19-62.02-.7-1.35-1.52-1.85-3.02-1.97-7.43-.58-11.19-8.29-7.08-14.72,1.12-1.75.84-2.92.17-4.56-8.34-20.36-14.02-41.52-17.2-63.41-.43-3-1-5.97-1.47-8.97-.35-2.23-.86-4.1-3.05-5.46-2.31-1.43-2.69-5.12-1.39-7.59,1.41-2.67,4.43-4.05,7.22-2.72,1.83.87,3.18.5,4.84-.12,14.93-5.54,29.83-11.18,45.39-14.62,2.22-.49,2.7.25,2.87,2.1.29,3.14.65,6.28.82,9.43.08,1.56.28,2.13,2.05,1.75,4.43-.97,8.91-1.62,13.38-2.41,1.32-.24,2.29-.99,3.25-2.01,2.25-2.41,5.57-2.6,7.93-.67,2.26,1.85,2.97,5.53,1.19,8.22-1.82,2.75-.99,5.67-.99,8.51,0,1.76,1.67,1.11,2.56,1.02,8.42-.89,16.87-.67,25.31-.65,2.93,0,5.83.22,8.74.56,4.84.57,4.85.48,4.84-4.78ZM275.86,174.53c-20.06-.26-38.59,3.08-56.84,8.56-2.4.72-2.7,1.66-2.12,4.05,9.3,38.49,27.87,71.3,55.26,98.79,2.06,2.06,3.05,2.02,5.07-.04,27.04-27.56,44.94-60.52,54.13-98.72.72-2.99.24-4.3-2.76-5.1-17.64-4.73-35.45-7.95-52.73-7.54ZM249.12,158.41c0-4-3.3-7.83-6.06-7.38-14.41,2.34-28.53,5.94-42.34,10.88-1.62.58-2.3,1.13-1.9,3.28.85,4.63-.83,8.52-4.66,10.11-2.69,1.12-2.69,2.78-2.23,4.95,1.23,5.81,2.36,11.66,3.83,17.4,12,47.06,35.94,86.25,71.45,117.83,1.44,1.28,2.5,1.59,4.24.64,2.19-1.2,4.74-1.26,6.88-.06,2.05,1.14,3.24.48,4.77-.89,32.71-29.31,55.85-65.19,68.58-108.27,2.6-8.82,4.63-17.78,6.35-26.82.26-1.35,1.21-3.11-1.19-4.23-4.95-2.3-6.6-5.63-5.65-11.13.3-1.74-.17-2.1-1.46-2.58-13.97-5.13-28.31-8.74-42.93-11.14-1.9-.31-5.71,3.05-5.88,5.07q-.46,5.46,4.92,6.44c1.06.19,2.12.38,3.18.57,12.44,2.29,24.66,5.47,36.59,9.87,1.55.57,2.19,1.04,1.83,3.07-5.49,31.67-16.58,60.94-34.2,87.44-10.3,15.48-22.41,29.26-36.01,41.64-1.28,1.16-2.29,2.39-4.33.58-19.89-17.66-36.5-38.12-49.24-61.95-10.97-20.52-18.17-42.47-22.64-65.42-.29-1.48-1.5-3.43,1.43-4.52,13.95-5.23,28.25-8.99,42.89-11.26,3.08-.48,4.4-1.34,3.78-4.12ZM252.94,318.96c3.21,1.47,4.3-1.46,5.36-3.36,1.07-1.91-1.32-2.72-2.37-3.75-4.19-4.1-8.23-8.34-12.14-12.72-30.73-34.44-49.4-75.07-57.19-121.27-.25-1.45-.87-2.37-1.98-3.27-3.68-2.97-4.67-7.59-2.69-11.73,1.98-4.13,6.2-6.14,10.64-4.81,1.69.51,3.1.24,4.7-.3,6.88-2.3,13.71-4.83,20.73-6.53,3.73-.9,5.11-2,4.46-6.19-.66-4.22-.23-4.26-4.43-3.21-13.14,3.28-25.78,8.18-38.45,12.97-.7.27-1.54.31-1.91,1.13-1.48,3.24-3.39,6.33-1.87,10.27.67,1.73.74,3.74,1.01,5.63,3.16,22,8.71,43.3,17.03,63.81.68,1.67,1.37,2.6,3.44,2.78,7.04.65,10.64,8.31,6.85,14.51-1.05,1.73-.93,2.86-.07,4.48,12.01,22.59,27.13,42.63,45.19,60.29,1.04,1.02,2.02,2.13,3.69,1.27ZM327.58,146.55c-1.32,3.08.7,3.74,3.34,4.36,7.47,1.76,14.74,4.26,21.95,6.92,1.48.55,2.82.73,4.39.26,4.51-1.33,8.72.59,10.68,4.66,2.05,4.26,1.14,8.73-2.54,11.77-1.08.89-1.77,1.79-2.04,3.25-1.01,5.51-2,11.03-3.27,16.48-8.52,36.63-24.34,69.39-48.01,97.96-6.02,7.27-12.36,14.2-19.18,20.67-.73.69-2.15,1.16-1.25,2.95,2.01,4.01,6.46,4.49,9.21,1.77,17.93-17.76,33.13-37.72,45.12-60.31.81-1.52.93-2.58-.07-4.19-3.76-6.07-.56-13.81,6.21-14.61,2.58-.31,3.37-1.48,4.25-3.59,9.71-23.28,14.72-47.84,18.42-72.77.21-1.43-2.85-6.74-4.2-7.25-12.46-4.72-24.89-9.53-37.79-12.85-5.12-1.32-5.17-1.75-5.24,4.51ZM196.66,243.64c-2.57.02-4.08,1.55-4.11,4.12-.03,2.56,1.42,4.18,4.04,4.23,2.63.05,4.14-1.59,4.17-4.11.02-2.49-1.4-4.17-4.1-4.24ZM354.01,243.67c-3.22-.07-4.75,1.54-4.82,4.02-.07,2.46,1.31,4.26,3.98,4.31,2.6.05,4.16-1.47,4.23-4.04.07-2.54-1.34-4.17-3.39-4.29ZM360.32,171.27c2.08-.14,3.64-1.44,3.65-4.13,0-2.65-1.45-4.16-4-4.22-2.61-.06-4.11,1.56-4.1,4.12,0,2.49,1.33,4.21,4.46,4.23ZM278.96,323.9c.09-1.83-1.44-3.21-3.84-3.52-2.16-.28-4.06,1.79-4.11,4.16-.07,2.74,1.43,4.33,3.83,4.41,2.37.08,4.03-1.32,4.13-5.05ZM189.49,171.26c3.22,0,4.65-1.73,4.66-4.16,0-2.43-1.43-4.24-4.09-4.18-2.54.05-4.05,1.49-4.07,4.16-.01,2.68,1.5,4.04,3.5,4.19Z"/>
  </g>
</svg>