<?xml version="1.0" encoding="UTF-8"?>
<svg id="Layer_2" data-name="Layer 2" xmlns="http://www.w3.org/2000/svg" viewBox="0 0 1035.77 188.85">
  <defs>
    <style>
      .cls-1 {
        fill: #d0a963;
      }

      .cls-2 {
        fill: #c1cac5;
      }

      .cls-3 {
        fill: #3f4d4e;
      }

      .cls-4 {
        fill: #d2a85c;
      }

      .cls-5 {
        fill: #1a2e37;
      }
    </style>
  </defs>
  <g id="Layer_1-2" data-name="Layer 1">
    <path class="cls-5" d="M124.1,160.61c2.01-1.81,4.05-3.61,6.03-5.45,16.04-14.93,28.62-31.95,36.26-51.95,2.95-7.72,5.07-15.63,6.31-23.75.75-4.89,1.18-9.8,1.43-14.73.05-.91-.27-1.33-1.19-1.68-9.04-3.35-18.4-5.55-28-7-8.91-1.35-17.88-1.88-26.88-1.55-15.49.56-30.55,3.21-45.02,8.52-1,.37-1.26.85-1.23,1.78.5,13.88,3.22,27.36,8.46,40.37,5.9,14.64,14.5,27.8,25.32,39.74,5,5.51,10.4,10.66,16.1,15.54-.07.07-.14.13-.21.2-4.68-2.07-9.03-4.66-13.27-7.4-22.76-14.7-37.09-34.78-43.93-59.62-1.9-6.9-3.16-13.9-3.85-21-.52-5.37-.85-10.75-.85-16.14,0-.97.34-1.41,1.3-1.74,6.33-2.17,12.07-5.26,16.85-9.74,5.71-5.35,9.24-11.74,10.37-19.24.31-2.05.51-4.09.43-6.19-.84,1.74-1.33,3.6-2.17,5.33-.89,1.84-1.87,3.64-3.04,5.34-1.14,1.66-2.32,3.3-3.95,4.88-1.02-2.47-1.42-4.85-1.06-7.32.61-4.2,2.82-7.77,5.22-11.25,1.98-2.86,4.01-5.7,5.75-8.84,1.03.76,1.65,1.72,2.27,2.64,4.72,7.01,5.94,14.3,1.7,21.9-1.46,2.61-3.61,4.65-6.59,5.84-.3.12-.69.26-.82.5-.87,1.54-1.68,3.1-2.57,4.76,1.57.05,2.88-.43,4.2-.79,6.02-1.68,11.12-4.56,14.44-9.71.34-.53.75-.72,1.41-.72,13.08.01,26.15.02,39.22,0,.92,0,1.22.49,1.62,1.07,4.15,6.03,10.48,8.79,17.72,10.18.17.03.37-.03.68-.05-.84-1.59-1.65-3.11-2.45-4.63-.14-.27-.38-.35-.66-.47-5-2.02-7.62-5.85-8.81-10.54-1.88-7.4.54-13.87,5.52-19.66.09-.1.23-.16.45-.31,2.79,5.3,7,9.8,9.48,15.24,1.7,3.72,2.09,7.51.7,11.39-.04.13-.08.26-.14.37-.04.07-.14.12-.33.29-4.17-4.5-7.08-9.6-8.91-15.29-.14,2.92.08,5.79.8,8.6,3.06,12.07,11.34,20,23.17,25.07,1.23.53,2.46,1.05,3.74,1.43.91.27,1.16.69,1.16,1.55.01,5.44-.31,10.87-.85,16.29-1.05,10.46-3.28,20.68-6.99,30.61-6.05,16.18-15.78,30.11-29.46,41.61-7.5,6.3-15.8,11.55-24.74,15.91-.05-.06-.11-.13-.17-.18Z"/>
    <path class="cls-4" d="M199.62,74.2c1.65,4.18,3.33,8.34,4.52,12.67.06.21.1.42.18.79-1.86-.3-3.23-1.19-4.45-2.26-3.22-2.82-4.41-6.55-5.11-10.46-.43-2.39-.34-4.81-.37-7.23-.01-.96.19-1.33,1.32-.93,3.97,1.43,7.78,3.07,10.42,6.41,2.27,2.88,3.07,6.14,2.65,9.67-.22,1.84.03,3.4,1.2,6.26.78-3.08,1.51-5.9,2.21-8.73.1-.4-.08-.8-.21-1.2-1.02-3.22-2.01-6.45-2.98-9.69-.16-.55-.4-1.01-.82-1.41-6.76-6.41-12.98-13.28-18.94-20.35-1.42-1.68-3.55-2.48-5.19-3.9-5.71-4.96-8.35-10.99-7.69-18.33.43-4.85,2.16-9.3,4.46-13.6.25-.47.42-1.02,1.03-1.42.76,1.23,1.47,2.46,2.25,3.64,2.22,3.42,4.54,6.79,6.69,10.24,2.53,4.05,4.48,8.28,3.98,13.18-.14,1.33-.51,2.59-.96,3.84-.09.24-.28.57-.48.62-.41.1-.51-.33-.67-.59-3.8-6.15-7.35-12.41-9.28-19.36-.08-.29-.23-.56-.42-1.02.16,8.4,3.33,15.65,7.91,22.44,4.15,6.15,9.25,11.57,14.78,16.64.33.3.6.73,1.24.71-.41-2.38-.74-4.67-2.22-6.8-2.86-4.12-4.28-8.78-4.34-13.69-.08-6.87,2.73-12.75,7.37-17.95,2.07-2.31,4.4-4.36,6.91-6.23.34-.25.63-.56,1.25-.66.23,1.74.45,3.46.68,5.19.53,3.92,1.11,7.83,1.61,11.76.6,4.78.76,9.55-1.34,14.11-1.05,2.28-2.57,4.23-4.81,5.97-.98-8.12-1.5-16.03-.3-24.14-5.15,5.37-3.09,35.91,2.9,44.33.47-1.14,1.03-2.14.81-3.4-2.05-11.87,5.12-20.83,15.09-24.86,4.65-1.88,9.5-2.73,14.56-2.6.65.02,1.3,0,.64.86-3.44,4.46-5.16,9.65-7.12,14.74-1.35,3.52-2.86,6.97-5.49,9.87-2.34,2.57-5.26,4.25-8.66,5.25-.41.12-.86.41-1.23.11-.41-.33-.02-.79.09-1.14,1.61-5.44,4.17-10.48,7.41-15.21.99-1.45,2.03-2.88,3.04-4.31.03-.05.07-.11.1-.16-.07.02-.13.05-.2.07-4.17,2.37-7.1,5.86-9.58,9.7-3.79,5.87-5.88,12.34-7.48,18.98-1.61,6.65-2.17,13.47-3.77,20.12-3.1,12.88-8.42,24.76-17.42,35.03-.95,1.09-1.97,2.13-2.97,3.18-.08.08-.24.1-.45.18.26-9.85,1.35-19.75-3.91-28.85,1.02,4.18,1.95,8.37,2.48,12.9-2.32-.91-3.76-2.32-4.77-4.11-1.97-3.46-2.24-7.2-1.91-11.02.1-1.22.33-2.43.47-3.65.07-.61.26-.99,1-.63,4.58,2.23,8.68,4.9,9.85,10.07.45,2.02.28,4.07-.21,6.09-.55,2.23.29,4.38.23,6.85,1.05-.84,1.46-1.67,1.97-2.42.76-1.11,1.43-2.27,2.2-3.38,2.08-2.98,3.15-6.08,2.45-9.78-1.04-5.51-2.36-10.87-5.57-15.67-.33-.49-.6-1.05-1.14-1.4-.07-.03-.13-.06-.2-.1,0,.08.02.16.03.25,1.34,3.41,2.73,6.8,3.71,10.33.11.39.41.86.05,1.15-.38.31-.81-.1-1.17-.27-3.74-1.74-5.51-4.85-6.47-8.46-.75-2.84-.99-5.74-.92-8.67.02-.65.03-1.27,1.02-.93,3.53,1.21,6.9,2.65,9.3,5.55,1.97,2.38,2.76,5.1,2.46,8.06-.3,3.04,1.02,5.78,1.48,8.88,5.86-12.95,3.21-24.7-4.53-35.86-.1-.08-.27-.25-.27-.24-.19.16-.09.29.07.4ZM211.7,27.3c-.03.15-.07.23-.06.3.03.13.11.13.17.01.02-.04.03-.09.02-.12-.02-.06-.07-.1-.13-.19Z"/>
    <path class="cls-4" d="M46.1,73.24c-7.77,11.03-10.4,22.64-4.56,35.34.56-3.05,1.74-5.84,1.5-8.95-.36-4.62,1.82-8.15,6.01-10.64,1.81-1.07,3.75-1.86,5.75-2.53.54-.18,1.03-.34,1.04.51.04,4.21-.26,8.36-2.2,12.26-1.13,2.28-2.88,4.04-5.34,5.13-.35.16-.8.58-1.15.2-.17-.18-.01-.68.09-1.01,1.07-3.5,2.4-6.92,3.8-10.32,0-.1,0-.19,0-.29-.06.05-.11.09-.17.14-2.6,2.94-4.06,6.4-5.16,10-1.05,3.42-1.71,6.91-1.79,10.47-.01.44-.06.95.13,1.33,1.75,3.6,3.9,7,6.52,10.2.25-2.05,1.03-4.09.53-6.09-1.84-7.32,1.19-11.65,6.74-14.91.45-.26.91-.51,1.37-.75,2.25-1.17,2.32-1.18,2.66,1.11.54,3.63.65,7.26-.53,10.82-.95,2.86-2.72,5.11-5.85,6.57.08-2.44.72-4.63,1.08-6.85.32-1.99,1.23-3.87,1.32-5.9.05-.03.1-.06.15-.09-.03,0-.07-.02-.09,0-.03.03-.04.07-.06.1-2.13,2.85-2.9,6.15-3.46,9.47-1.03,6.08-.99,12.19-.35,18.3.02.2-.03.42-.07.89-1.87-1.62-3.29-3.31-4.7-4.99-8.24-9.84-13.21-21.05-16.12-33.14-1.57-6.53-2.2-13.21-3.78-19.74-1.81-7.5-4.25-14.77-9.08-21.14-2.18-2.88-4.65-5.52-8-7.31-.06-.03-.12-.05-.18-.08.03.05.07.1.1.15,1.84,2.74,3.9,5.36,5.54,8.22,2.03,3.55,3.71,7.22,4.88,11.09.11.35.46.81.08,1.12-.35.29-.82.03-1.24-.09-4.85-1.4-8.51-4.16-11-8.28-1.89-3.12-3.08-6.49-4.36-9.84-1.51-3.95-3.14-7.85-5.8-11.29-.56-.72-.46-.97.53-.98,8.39-.1,16.05,1.9,22.32,7.25,5.85,4.99,8.44,11.28,7.41,18.71-.22,1.55-.18,3.03.76,4.46.49-.29.54-.79.71-1.23,2.62-6.75,4.38-13.67,4.96-20.85.6-7.38.18-14.65-2.4-21.71-.08-.21-.17-.42-.27-.62-.04-.07-.12-.13-.31-.35.28,2.01.5,3.86.69,5.71.32,3.11.23,6.21.11,9.31-.11,2.87-.52,5.73-.8,8.59-.03.34.14.8-.36.92-.35.08-.61-.24-.84-.46-2.99-2.83-4.65-6.22-5.2-10.15-.8-5.72.6-11.27,1.29-16.88.36-2.89.76-5.78,1.16-8.79,1.64.78,2.86,1.94,4.12,3.01,5.54,4.74,9.72,10.25,10.97,17.34,1.07,6.06-.36,11.69-3.43,17.04-.68,1.18-1.76,2.16-2.01,3.55-.23,1.28-.46,2.55-.56,3.92,6.21-5.21,11.7-10.99,16.17-17.59,4.53-6.68,7.49-13.84,7.63-21.86-1.93,7.14-5.55,13.58-9.47,19.89-.23.36-.34,1-.89.95-.53-.05-.54-.68-.69-1.08-1.57-4.18-.94-8.22.93-12.19,2.25-4.77,5.58-8.95,8.42-13.39.94-1.47,1.86-2.94,2.89-4.57,1.26,1.74,2.07,3.55,2.85,5.36,2.15,5,3.3,10.12,2.27,15.54-1.02,5.37-3.96,9.71-8.57,12.88-2.7,1.86-4.86,4.07-6.92,6.44-4.94,5.67-10.12,11.15-15.62,16.36-.66.63-1.08,1.31-1.33,2.18-.88,3.03-1.86,6.05-2.84,9.05-.22.67-.34,1.31-.16,1.99.69,2.57,1.38,5.13,2.2,7.72.5-1.68,1.44-3.3,1.16-5.11-1.08-6.85,2.49-11.88,8.09-14.67,1.67-.83,3.4-1.51,5.19-2.08.5-.16.99-.34,1.01.41.18,5.96-.12,11.83-4.23,16.85-1.17,1.43-2.72,2.42-4.47,3.14-.34.14-.72.43-1.05.12-.27-.26.03-.59.11-.88,1.2-4.17,2.81-8.22,4.49-12.24.15-.13.24-.27.06-.42-.01,0-.19.15-.28.23Z"/>
    <path class="cls-5" d="M88.99,151.07c-2.24-.38-4.3-.73-6.36-1.09-6.33-1.1-12.65-2.22-19.12-1.91-1.65.08-3.27.34-4.8.96-2.3.93-3.52,2.8-3.47,5.15.05,2.11,1.39,3.82,3.67,4.69,2.65,1.01,5.22.51,7.74-.49.53-.21,1.03-.47,1.75-.81-.41,1.48-1.31,2.39-2.16,3.31-5.57,6-16.55,5.08-21.07-1.75-4.48-6.78-.37-16.06,7.96-18.01,5.09-1.19,10.07-.48,15.03.74,6.94,1.71,13.38,4.6,19.54,8.15.4.23.87.39,1.26,1.06Z"/>
    <path class="cls-5" d="M178.88,158.08c2.12,1.01,4.3,1.85,6.72,1.73,1.38-.07,2.66-.41,3.83-1.16,3.39-2.17,3.28-6.82-.22-8.8-1.68-.95-3.54-1.25-5.43-1.36-5.34-.31-10.61.43-15.86,1.3-2.95.49-5.89,1.04-8.83,1.56-.26.05-.54,0-.86,0,.19-.56.66-.67,1.01-.87,7.62-4.38,15.61-7.79,24.36-9.17,4-.63,8-.71,11.88.69,4.95,1.78,8.12,6.25,8.28,11.13.18,5.45-3.68,9.5-8.1,11.17-6.36,2.4-13.26.23-16.51-5.23-.15-.26-.51-.49-.26-1Z"/>
    <path class="cls-4" d="M135.38,164.07c3.51-1.82,7.23-3.07,11.04-4.09,5.35-1.43,10.78-2.26,16.33-1.9,3.61.23,7.12,1,9.95,3.43,3.51,3,4.78,6.92,3.64,11.34-1.11,4.3-4.36,6.61-8.54,7.54-6.54,1.47-12.63-1.81-14.6-7.9,1.98,1.32,3.89,2.36,6.13,2.57,3.27.31,6.97-1.61,6.35-5.55-.22-1.37-.85-2.44-2-3.2-2.07-1.38-4.43-1.84-6.83-2.14-6.57-.81-13.14-.38-19.72-.1-.58.02-1.16,0-1.74,0Z"/>
    <path class="cls-4" d="M94.07,171.94c-1.6,4.22-4.21,6.84-8.22,7.87-5.02,1.29-9.51.28-13.09-3.61-4.29-4.67-2.74-13.77,4.46-16.86,2.02-.87,4.12-1.45,6.28-1.6,9.97-.72,19.27,1.89,28.06,5.6-3.21,0-6.65.03-10.08,0-5.22-.06-10.45-.15-15.52,1.37-2.14.64-4.04,1.71-4.49,4.21-.74,4.11,2.91,6.04,6.25,5.75,2.26-.19,4.22-1.19,6.35-2.72Z"/>
    <path class="cls-5" d="M122.99,168.04c-2.99,1.18-5.98,2.34-8.95,3.56-2.46,1.01-4.87,2.13-6.99,3.76-1.34,1.03-2.67,2.12-2.64,4.07.03,2.18,1.93,3.77,4.08,3.4,1.86-.33,3.27-1.35,4.41-2.82.28-.37.44-.85.92-1.07.46,4.17-2.77,8.27-7.24,9.22-3.99.85-7.57-.66-9.13-3.84-1.8-3.66-.97-7.61,2.21-10.31,3.57-3.04,7.91-4.35,12.37-5.27,3.6-.75,7.24-1.11,10.96-.7Z"/>
    <path class="cls-5" d="M123.95,168.15c7.38.03,14.32.88,20.68,4.34,2.68,1.45,4.88,3.39,5.69,6.57,1.35,5.3-2.77,10.21-8.28,9.76-5.25-.42-9.2-4.7-8.79-9.74.94,1.26,1.74,2.45,2.99,3.22,1.01.62,2.09,1.08,3.27.94,1.36-.16,2.47-.79,2.98-2.18.54-1.48.11-2.76-.87-3.87-1.5-1.7-3.46-2.76-5.44-3.77-3.57-1.82-7.36-3.12-11.07-4.58-.35-.14-.71-.2-1.16-.7Z"/>
    <path class="cls-2" d="M121.69,171.93c.09.13.39.2.22.39-.13.15-.34.02-.43-.17.07-.07.14-.14.21-.22Z"/>
    <path class="cls-2" d="M124.27,172.29c-.11.01-.22.02-.33.03.05-.08.1-.15.15-.23.06.06.12.13.17.2Z"/>
    <path class="cls-3" d="M211.7,28.32c.06.09.11.15.13.21.01.04,0,.09-.02.13-.06.13-.14.12-.17-.01-.02-.07.03-.16.06-.32Z"/>
    <path class="cls-3" d="M199.62,78.06c-.17-.12-.27-.26-.07-.43,0,0,.18.17.27.26-.07.06-.13.12-.2.17Z"/>
    <path class="cls-3" d="M194.88,99.34c0-.09-.02-.17-.03-.26.07.03.13.07.2.1-.05.06-.11.11-.17.16Z"/>
    <path class="cls-3" d="M233.6,54.42c.07-.03.13-.05.2-.08-.03.06-.07.11-.1.17,0,0-.1-.1-.1-.1Z"/>
    <path class="cls-3" d="M46.1,77.88c.1-.09.27-.26.28-.25.19.16.09.32-.06.45-.08-.07-.15-.14-.23-.2Z"/>
    <path class="cls-3" d="M50.86,99.18c.06-.05.11-.1.17-.15,0,.1,0,.2,0,.31-.06-.05-.12-.1-.18-.16Z"/>
    <path class="cls-3" d="M57.87,116.36s.03-.08.06-.11c.01-.01.06,0,.09,0-.05.03-.1.06-.15.1,0,0,0,0,0,0Z"/>
    <path class="cls-5" d="M130.3,102.66c-.36-.97-.71-1.91-1.07-2.9,2.26.52,4.48,1.03,6.75,1.55-.5.14-.95.26-1.47.4.51.3.95.54,1.36.81.33.22.66.46.95.73,1.21,1.16,1.22,2.48.01,3.65-.98.94-2.21,1.49-3.5,1.87-4.73,1.39-9.55,1.75-14.45,1.19-2.66-.31-5.25-.89-7.7-1.97-.81-.36-1.59-.83-2.26-1.39-1.26-1.07-1.3-2.46-.24-3.72.62-.74,1.42-1.28,2.27-1.74,1.34-.73,2.73-1.36,4.25-1.66.3-.06.55-.02.81.15.89.58,1.8,1.13,2.7,1.69.12.07.24.15.4.26-.85.24-1.65.46-2.45.7-1.18.37-2.24.92-3,1.9-.63.8-.7,1.17.08,2.12.46.57,1.13.87,1.81,1.11,2.79.98,5.68,1.34,8.63,1.34,2.98,0,5.89-.45,8.69-1.44.68-.24,1.33-.64,1.89-1.09.97-.78.94-1.93.01-2.77-.65-.59-1.44-.96-2.27-1.19-.37-.1-.82.07-1.23.15-.31.06-.61.15-.96.24Z"/>
    <path class="cls-5" d="M118.14,96.11l4.65-12.25,4.87,12.2c-.97,0-1.88.02-2.79,0-.5-.02-.62.15-.6.58.13,2.65.26,5.29.36,7.94.04.96,0,1.93,0,2.99-.73.03-1.55.06-2.38.08-.2,0-.4-.02-.6-.03-1.45-.06-.83.12-.96-2.07-.17-2.87-.03-5.75.46-8.58.05-.3.04-.45.04-.85h-3.05Z"/>
    <path class="cls-5" d="M120.24,129.81c.18-6.04.36-11.85.53-17.71h3.98c.07,1.33.17,2.65.12,3.99-.16,4.33.05,8.65.43,12.96.06.72-.16.75-.44.76-1.53,0-3.06,0-4.63,0Z"/>
    <path class="cls-4" d="M104.1,7.35c1.12,1.2,2.04,2.3,3.09,3.28,2.79,2.63,5.47,2.69,8.34.13,2.22-1.99,3.72-4.54,5.24-7.06.71-1.18,1.4-2.38,2.18-3.7,1.31,2.15,2.5,4.16,3.75,6.14,1.11,1.76,2.3,3.47,3.91,4.82,2.68,2.27,5.27,2.21,7.93-.11,1.16-1.01,2.12-2.21,3.37-3.7-.25,1.82-.42,3.26-.65,4.68-.56,3.53-.9,7.08-.85,10.66.02,1.69.22,3.36.52,5.02.15.85.03,1.24-.96,1.24-11.32-.02-22.65-.02-33.97,0-.98,0-1.15-.41-.99-1.23.84-4.41.64-8.81,0-13.22-.32-2.23-.58-4.47-.9-6.94Z"/>
    <path class="cls-4" d="M132.26,69.81c.1-.74-.14-1.48-.59-2.27-.65-1.15-.49-2.39.46-3.32.94-.93,2.28-1.19,3.17-.29,1.12,1.14,2.4,1.36,3.76,1.6,1.43.25,2.86.46,4.27.8.69.16.81-.03.86-.69.1-1.45.28-2.9.42-4.35.08-.87.34-1.11,1.29-.89,5.85,1.34,11.54,3.25,17.16,5.38.86.33,1.72.66,2.59.97.93.34,1.77.7,2.86.18,1.22-.58,2.49.12,3.04,1.32.55,1.21.54,2.59-.57,3.25-1.32.79-1.32,1.99-1.49,3.16-1.56,10.98-4.09,21.69-8.36,31.9-.27.65-.29,1.12.12,1.77,1.88,3.01.27,6.39-3.17,6.67-.69.06-1.02.36-1.32.93-5.41,10.38-12.37,19.5-20.58,27.6-.51.51-.79.99-.76,1.81.08,1.65-1.23,2.97-2.7,2.94-1.42-.03-2.63-1.29-2.54-2.9.07-1.36-.82-1.99-1.57-2.7-.52-.5-1.68.78-1.59,1.83.13,1.51-.29,2.8-1.37,3.81-1.18,1.1-3.11,1.36-4.48.62-1.57-.85-2.28-2.24-2.28-4.07,0-.47.4-1.02-.15-1.4-.45-.31-.76-1.25-1.34-.83-.75.55-1.55,1.24-1.64,2.35-.16,2.13-1.07,3.3-2.61,3.29-1.59-.01-2.52-1.18-2.6-3.45-.02-.63-.4-.89-.74-1.21-8.25-8.14-15.23-17.31-20.65-27.73-.31-.6-.68-.83-1.35-.88-3.32-.26-5-3.71-3.17-6.58.5-.78.38-1.31.07-2.04-3.73-9.11-6.27-18.57-7.69-28.36-.19-1.34-.45-2.67-.66-4.01-.15-1-.38-1.83-1.36-2.44-1.03-.64-1.2-2.29-.62-3.39.63-1.19,1.98-1.81,3.23-1.21.82.39,1.42.22,2.16-.05,6.68-2.48,13.34-5,20.3-6.54.99-.22,1.21.11,1.28.94.13,1.4.29,2.81.37,4.22.04.7.13.95.92.78,1.98-.43,3.99-.72,5.98-1.08.59-.11,1.03-.44,1.45-.9,1.01-1.08,2.49-1.16,3.54-.3,1.01.83,1.33,2.47.53,3.68-.81,1.23-.44,2.53-.44,3.81,0,.79.74.5,1.15.46,3.77-.4,7.54-.3,11.32-.29,1.31,0,2.61.1,3.91.25,2.17.25,2.17.22,2.17-2.14ZM123.35,78.04c-8.97-.12-17.26,1.38-25.42,3.83-1.07.32-1.21.74-.95,1.81,4.16,17.21,12.46,31.88,24.71,44.17.92.92,1.36.9,2.27-.02,12.09-12.32,20.09-27.06,24.2-44.14.32-1.34.11-1.92-1.23-2.28-7.89-2.11-15.85-3.56-23.58-3.37ZM111.4,70.83c0-1.79-1.47-3.5-2.71-3.3-6.45,1.05-12.76,2.66-18.93,4.86-.73.26-1.03.51-.85,1.47.38,2.07-.37,3.81-2.08,4.52-1.2.5-1.2,1.24-1,2.21.55,2.6,1.06,5.21,1.71,7.78,5.37,21.04,16.07,38.57,31.95,52.69.64.57,1.12.71,1.9.29.98-.54,2.12-.56,3.08-.03.92.51,1.45.21,2.13-.4,14.63-13.11,24.98-29.15,30.66-48.41,1.16-3.94,2.07-7.95,2.84-11.99.11-.6.54-1.39-.53-1.89-2.21-1.03-2.95-2.52-2.53-4.97.14-.78-.08-.94-.65-1.15-6.25-2.29-12.66-3.91-19.2-4.98-.85-.14-2.55,1.36-2.63,2.27q-.2,2.44,2.2,2.88c.47.09.95.17,1.42.26,5.56,1.02,11.03,2.45,16.36,4.41.69.26.98.47.82,1.37-2.45,14.16-7.41,27.25-15.29,39.1-4.6,6.92-10.02,13.08-16.1,18.62-.57.52-1.03,1.07-1.94.26-8.89-7.9-16.32-17.05-22.02-27.7-4.9-9.18-8.12-18.99-10.12-29.25-.13-.66-.67-1.53.64-2.02,6.24-2.34,12.63-4.02,19.18-5.03,1.38-.21,1.97-.6,1.69-1.84ZM113.11,142.63c1.43.66,1.92-.65,2.4-1.5.48-.85-.59-1.22-1.06-1.68-1.87-1.83-3.68-3.73-5.43-5.69-13.74-15.4-22.09-33.57-25.57-54.23-.11-.65-.39-1.06-.89-1.46-1.65-1.33-2.09-3.39-1.2-5.24.88-1.85,2.77-2.75,4.76-2.15.76.23,1.39.11,2.1-.13,3.07-1.03,6.13-2.16,9.27-2.92,1.67-.4,2.28-.89,1.99-2.77-.29-1.89-.1-1.91-1.98-1.44-5.88,1.47-11.53,3.66-17.19,5.8-.31.12-.69.14-.85.5-.66,1.45-1.52,2.83-.83,4.59.3.78.33,1.67.45,2.52,1.41,9.84,3.89,19.36,7.62,28.53.3.74.61,1.16,1.54,1.25,3.15.29,4.76,3.72,3.06,6.49-.47.77-.42,1.28-.03,2,5.37,10.1,12.13,19.06,20.21,26.96.47.46.9.95,1.65.57ZM146.48,65.53c-.59,1.38.31,1.67,1.49,1.95,3.34.79,6.59,1.91,9.82,3.1.66.24,1.26.32,1.96.12,2.02-.6,3.9.26,4.78,2.09.92,1.9.51,3.9-1.14,5.26-.48.4-.79.8-.91,1.45-.45,2.46-.89,4.93-1.46,7.37-3.81,16.38-10.88,31.03-21.47,43.81-2.69,3.25-5.53,6.35-8.58,9.24-.33.31-.96.52-.56,1.32.9,1.79,2.89,2.01,4.12.79,8.02-7.94,14.81-16.87,20.18-26.97.36-.68.42-1.15-.03-1.88-1.68-2.71-.25-6.17,2.78-6.53,1.15-.14,1.51-.66,1.9-1.61,4.34-10.41,6.58-21.39,8.24-32.54.09-.64-1.27-3.01-1.88-3.24-5.57-2.11-11.13-4.26-16.9-5.74-2.29-.59-2.31-.78-2.34,2.02ZM87.94,108.95c-1.15.01-1.83.69-1.84,1.84-.01,1.15.64,1.87,1.81,1.89,1.18.02,1.85-.71,1.86-1.84.01-1.11-.63-1.86-1.83-1.9ZM158.3,108.96c-1.44-.03-2.12.69-2.15,1.8-.03,1.1.59,1.9,1.78,1.93,1.16.02,1.86-.66,1.89-1.81.03-1.13-.6-1.86-1.52-1.92ZM161.12,76.59c.93-.06,1.63-.64,1.63-1.85,0-1.18-.65-1.86-1.79-1.89-1.17-.03-1.84.7-1.83,1.84,0,1.11.6,1.88,1.99,1.89ZM124.74,144.84c.04-.82-.65-1.44-1.72-1.58-.96-.13-1.81.8-1.84,1.86-.03,1.23.64,1.94,1.71,1.97,1.06.04,1.8-.59,1.85-2.26ZM84.73,76.58c1.44,0,2.08-.77,2.08-1.86,0-1.09-.64-1.9-1.83-1.87-1.14.02-1.81.67-1.82,1.86,0,1.2.67,1.8,1.56,1.87Z"/>
    <g>
      <path class="cls-1" d="M274.77,173.11v-57h9v57h-9Z"/>
      <path class="cls-1" d="M330.77,173.11h-31v-57h31v8h-22v15h21v8h-21v18h22v8Z"/>
      <path class="cls-1" d="M374.77,173.11h-31v-57h31v8h-22v15h21v8h-21v18h22v8Z"/>
      <path class="cls-1" d="M419.77,173.11h-31v-57h31v8h-23v15h21v8h-21v18h23v8Z"/>
      <path class="cls-1" d="M485.76,157.74c0,5.08-1.76,9.06-5.27,11.95s-8.36,4.34-14.54,4.34-11.24-1-15.18-3.01v-8.83c2.49,1.22,5.14,2.19,7.94,2.89s5.41,1.05,7.83,1.05c3.54,0,6.15-.7,7.83-2.11,1.68-1.41,2.52-3.29,2.52-5.66,0-2.13-.77-3.95-2.32-5.43s-4.74-3.24-9.57-5.27c-4.98-2.11-8.5-4.52-10.54-7.23-2.04-2.71-3.06-5.96-3.06-9.77,0-4.77,1.62-8.52,4.86-11.25,3.24-2.73,7.59-4.1,13.05-4.1s10.44,1.2,15.62,3.59l-2.84,7.62c-4.86-2.13-9.2-3.2-13.01-3.2-2.89,0-5.08.66-6.58,1.97-1.5,1.32-2.24,3.05-2.24,5.21,0,1.48.3,2.75.9,3.81.6,1.05,1.58,2.05,2.95,2.99s3.84,2.17,7.4,3.71c4.01,1.75,6.95,3.37,8.82,4.88,1.87,1.51,3.24,3.22,4.11,5.12.87,1.9,1.31,4.14,1.31,6.72Z"/>
      <path class="cls-1" d="M512.44,166.71c2.11,0,4.22-.35,6.33-1.05v6.91c-.97.44-2.22.81-3.76,1.11-1.53.3-3.12.45-4.76.45-8.32,0-12.48-4.58-12.48-13.75v-23.28h-6v-4.17l5.86-3.45,2.89-9.38h5.25v10h12v7h-11v23.12c0,2.21.52,3.85,1.56,4.9,1.04,1.05,2.41,1.58,4.11,1.58Z"/>
      <path class="cls-1" d="M557.58,173.11l-1.23-5h-.39c-1.24,2.03-3,3.63-5.28,4.78-2.28,1.16-4.89,1.74-7.81,1.74-5.07,0-8.85-1.32-11.35-3.95-2.5-2.64-3.75-6.63-3.75-11.98v-28.59h9v26.64c0,3.31.66,5.79,1.97,7.44,1.31,1.65,3.37,2.48,6.17,2.48,3.73,0,6.48-1.15,8.23-3.46s2.63-6.17,2.63-11.58v-21.52h9v43h-7.19Z"/>
      <path class="cls-1" d="M592.49,173.54c-5.15,0-9.17-1.95-12.06-5.85-2.89-3.9-4.33-9.38-4.33-16.43s1.46-12.59,4.39-16.53c2.92-3.94,6.98-5.91,12.16-5.91s9.56,2.09,12.4,6.28h.38c-.43-3.09-.65-5.53-.65-7.32v-15.68h9v61h-7.29l-1.62-6h0c-2.81,4.29-6.93,6.44-12.36,6.44ZM595.34,166.61c3.61,0,6.24-1.06,7.89-3.18,1.64-2.12,2.49-5.57,2.54-10.33v-1.29c0-5.44-.85-9.31-2.54-11.6-1.7-2.29-4.35-3.44-7.96-3.44-3.09,0-5.47,1.31-7.14,3.93s-2.5,6.35-2.5,11.19.81,8.44,2.43,10.96c1.62,2.51,4.05,3.77,7.29,3.77Z"/>
      <path class="cls-1" d="M646.13,174.42c-6.26,0-11.15-1.96-14.67-5.88-3.53-3.92-5.29-9.32-5.29-16.19s1.64-12.6,4.91-16.64c3.27-4.04,7.77-6.05,13.49-6.05,5.31,0,9.5,1.73,12.58,5.2,3.08,3.46,4.62,8.23,4.62,14.3v4.96h-26.8c.12,4.19,1.18,7.42,3.16,9.67,1.99,2.25,4.79,3.38,8.4,3.38,2.38,0,4.59-.24,6.64-.72,2.05-.48,4.25-1.28,6.6-2.4v7.46c-2.09,1.07-4.19,1.82-6.33,2.27s-4.57.66-7.31.66ZM644.23,136.25c-2.79,0-5.03.92-6.71,2.77-1.68,1.85-2.69,4.54-3.01,8.09h18.77c-.05-3.57-.87-6.27-2.47-8.11s-3.79-2.75-6.58-2.75Z"/>
      <path class="cls-1" d="M709.77,173.11h-9v-26.56c0-3.33-.62-5.82-1.85-7.46-1.23-1.64-3.19-2.46-5.86-2.46-3.56,0-6.17,1.15-7.82,3.44-1.65,2.29-2.47,6.13-2.47,11.52v21.52h-9v-43h6.53l1.23,5h.08c1.26-2.08,3.05-3.69,5.37-4.82,2.32-1.13,4.89-1.7,7.72-1.7,10.04,0,15.06,5.34,15.06,16.01v28.51Z"/>
      <path class="cls-1" d="M739.44,166.71c2.11,0,4.22-.35,6.33-1.05v6.91c-.97.44-2.22.81-3.76,1.11-1.53.3-3.12.45-4.76.45-8.32,0-12.48-4.58-12.48-13.75v-23.28h-6v-4.17l5.86-3.45,2.89-9.38h5.25v10h12v7h-11v23.12c0,2.21.52,3.85,1.56,4.9,1.04,1.05,2.41,1.58,4.11,1.58Z"/>
      <path class="cls-1" d="M777.77,116.11h16.22c7.53,0,12.97,1.14,16.32,3.43,3.35,2.29,5.03,5.9,5.03,10.84,0,3.33-.82,6.1-2.47,8.3-1.64,2.21-4.01,3.6-7.1,4.17v.39c3.84.75,6.66,2.24,8.47,4.46s2.71,5.23,2.71,9.03c0,5.12-1.71,9.13-5.14,12.03-3.43,2.9-8.19,4.35-14.3,4.35h-19.74v-57ZM786.77,140.11h8.72c3.79,0,6.56-.63,8.3-1.88,1.74-1.25,2.62-3.39,2.62-6.4,0-2.72-.94-4.69-2.82-5.9-1.88-1.21-4.87-1.82-8.96-1.82h-7.85v16ZM786.77,147.11v18h9.45c3.72,0,6.53-.74,8.43-2.24,1.9-1.49,2.85-3.84,2.85-7.06,0-2.95-.97-5.14-2.9-6.57-1.94-1.42-4.87-2.14-8.82-2.14h-9Z"/>
      <path class="cls-1" d="M850.26,129.28c1.81,0,3.31.14,4.48.41l-.88,8.98c-1.28-.33-2.6-.49-3.98-.49-3.6,0-6.52,1.26-8.75,3.77-2.24,2.52-3.35,5.78-3.35,9.81v21.34h-9v-43h7.05l1.19,8h.46c1.4-2.71,3.24-4.85,5.5-6.44,2.26-1.59,4.69-2.38,7.3-2.38Z"/>
      <path class="cls-1" d="M889.28,173.11l-1.82-6h-.31c-2.06,2.62-4.13,4.41-6.22,5.36s-4.76,1.42-8.03,1.42c-4.2,0-7.47-1.14-9.83-3.43-2.36-2.29-3.53-5.52-3.53-9.7,0-4.44,1.63-7.79,4.91-10.05s8.25-3.49,14.95-3.7l7.38-.23v-2.3c0-2.75-.64-4.81-1.91-6.18-1.28-1.36-3.25-2.05-5.93-2.05-2.19,0-4.29.33-6.3.97-2.01.65-3.94,1.42-5.79,2.3l-2.94-6.55c2.32-1.22,4.85-2.15,7.61-2.79,2.76-.64,5.36-.95,7.8-.95,5.43,0,9.53,1.2,12.3,3.58,2.77,2.39,4.15,6.14,4.15,11.26v29.03h-6.49ZM876.19,167c3.19,0,5.75-.93,7.68-2.79,1.93-1.86,2.9-4.47,2.9-7.83v-3.75l-5.31.23c-4.14.16-7.15.88-9.03,2.17s-2.82,3.26-2.82,5.92c0,1.93.55,3.42,1.64,4.47s2.74,1.58,4.93,1.58Z"/>
      <path class="cls-1" d="M945.77,173.11h-9v-26.56c0-3.33-.65-5.82-1.95-7.46-1.3-1.64-3.36-2.46-6.19-2.46-3.76,0-6.51,1.15-8.25,3.44-1.74,2.29-2.61,6.13-2.61,11.52v21.52h-9v-43h7.25l1.23,5h.37c1.26-2.08,3.05-3.69,5.37-4.82,2.32-1.13,4.89-1.7,7.72-1.7,10.04,0,15.06,5.34,15.06,16.01v28.51Z"/>
      <path class="cls-1" d="M976.26,174.03c-6.26,0-11.01-1.91-14.26-5.72-3.25-3.81-4.88-9.29-4.88-16.43s1.7-12.85,5.1-16.76c3.4-3.91,8.32-5.86,14.75-5.86,4.36,0,8.29.85,11.78,2.54l-2.65,7.38c-3.71-1.51-6.78-2.27-9.2-2.27-7.15,0-10.73,4.96-10.73,14.88,0,4.84.89,8.48,2.67,10.92,1.78,2.44,4.39,3.65,7.83,3.65,3.91,0,7.61-1.02,11.1-3.05v8.01c-1.57.96-3.25,1.65-5.03,2.07s-3.94.62-6.49.62Z"/>
      <path class="cls-1" d="M1035.77,173.11h-9v-26.56c0-3.33-.65-5.82-1.95-7.46-1.3-1.64-3.36-2.46-6.19-2.46-3.73,0-6.48,1.15-8.23,3.46-1.75,2.3-2.63,6.17-2.63,11.58v21.45h-9v-61h9v16.16c0,2.45-.15,5.06-.45,7.84h.57c1.21-2.06,2.9-3.66,5.06-4.79,2.16-1.13,4.69-1.7,7.57-1.7,10.17,0,15.25,5.21,15.25,15.64v27.85Z"/>
    </g>
    <g>
      <path class="cls-5" d="M290.77,62.11v27h-15V18.11h20.61c9.61,0,16.73,1.76,21.34,5.27,4.61,3.51,6.92,8.85,6.92,16,0,4.18-1.15,7.89-3.44,11.15-2.29,3.25-5.53,5.8-9.73,7.65,10.64,15.96,17.58,26.27,20.81,30.94h-16.87l-16.74-27h-7.91ZM290.77,49.11h4.79c4.7,0,8.16-.79,10.4-2.36,2.24-1.57,3.35-4.04,3.35-7.41s-1.14-5.71-3.43-7.12c-2.28-1.41-5.82-2.12-10.61-2.12h-4.51v19Z"/>
      <path class="cls-5" d="M381.5,18.11h15.14l-24.05,71h-16.35l-24-71h15.14l13.31,42.25c.74,2.49,1.51,5.4,2.3,8.72.79,3.32,1.28,5.63,1.48,6.92.35-2.98,1.56-8.19,3.63-15.64l13.4-42.25Z"/>
      <path class="cls-5" d="M489.77,18.11v46.19c0,5.27-1.17,9.9-3.5,13.87-2.34,3.97-5.71,7.02-10.13,9.13-4.41,2.12-9.63,3.17-15.66,3.17-9.09,0-16.14-2.35-21.17-7.06-5.03-4.7-7.54-11.14-7.54-19.31V18.11h15v43.7c0,5.5,1.09,9.54,3.27,12.11,2.18,2.57,5.79,3.86,10.82,3.86s8.41-1.29,10.61-3.88c2.2-2.59,3.3-6.65,3.3-12.18V18.11h15Z"/>
      <path class="cls-5" d="M555.77,89.11h-14v-31.88c0-3.94-.71-6.89-2.14-8.86-1.43-1.97-3.7-2.95-6.82-2.95-4.25,0-7.32,1.39-9.21,4.17s-2.84,7.4-2.84,13.84v25.68h-15v-55h11.36l2,7h.29c1.67-2.66,3.97-4.67,6.89-6.03,2.93-1.36,6.25-2.04,9.98-2.04,6.38,0,11.22,1.73,14.52,5.19,3.3,3.46,4.95,8.46,4.95,14.99v35.89Z"/>
      <path class="cls-5" d="M570.64,20.33c0-4.85,2.69-7.28,8.08-7.28s8.08,2.43,8.08,7.28c0,2.31-.67,4.11-2.02,5.4-1.35,1.29-3.37,1.93-6.06,1.93-5.38,0-8.08-2.44-8.08-7.32ZM585.77,89.11h-15v-55h15v55Z"/>
      <path class="cls-5" d="M614.56,89.11l-20.88-55h15.82l10.44,30.89c1.16,3.91,1.88,7.61,2.17,11.11h.29c.16-3.1.89-6.81,2.17-11.11l10.39-30.89h15.82l-20.88,55h-15.34Z"/>
      <path class="cls-5" d="M683.06,89.67c-8.57,0-15.27-2.42-20.09-7.28-4.82-4.85-7.24-11.72-7.24-20.61s2.23-16.22,6.69-21.22c4.46-5,10.62-7.5,18.5-7.5s13.38,2.2,17.57,6.59,6.28,10.47,6.28,18.21v7.23h-34.33c.16,4.23,1.38,7.54,3.67,9.91,2.29,2.38,5.49,3.56,9.62,3.56,3.21,0,6.24-.34,9.09-1.03s5.84-1.77,8.95-3.27v11.52c-2.54,1.3-5.25,2.27-8.14,2.91-2.89.63-6.41.95-10.57.95ZM680.88,43.58c-3.15,0-5.61,1-7.39,3s-2.81,4.84-3.06,8.52h20.82c-.07-3.68-1.02-6.52-2.87-8.52s-4.35-3-7.49-3Z"/>
      <path class="cls-5" d="M747.46,33.1c2.03,0,3.72.14,5.07.43l-1.13,13.69c-1.21-.32-2.69-.48-4.43-.48-4.79,0-8.52,1.2-11.19,3.59-2.67,2.39-4.01,5.74-4.01,10.05v28.72h-15v-55h11.36l2.21,9h.74c1.7-3,4.01-5.42,6.91-7.25,2.9-1.83,6.06-2.75,9.47-2.75Z"/>
      <path class="cls-5" d="M799.93,72.82c0,5.6-1.94,9.86-5.81,12.79-3.88,2.93-9.67,4.39-17.39,4.39-3.96,0-7.33-.27-10.12-.81-2.79-.54-5.4-1.33-7.83-2.37v-12.3c2.76,1.3,5.86,2.39,9.32,3.27,3.45.88,6.49,1.32,9.12,1.32,5.38,0,8.08-1.56,8.08-4.69,0-1.17-.36-2.12-1.07-2.86-.71-.73-1.95-1.56-3.7-2.49-1.75-.93-4.09-2.01-7.01-3.25-4.18-1.76-7.26-3.38-9.22-4.88-1.96-1.5-3.39-3.21-4.28-5.15-.89-1.94-1.34-4.32-1.34-7.15,0-4.85,1.87-8.6,5.62-11.25,3.75-2.65,9.06-3.98,15.93-3.98s12.92,1.43,19.12,4.3l-4.48,10.74c-2.72-1.17-5.27-2.13-7.64-2.88-2.37-.75-4.78-1.12-7.25-1.12-4.38,0-6.57,1.19-6.57,3.56,0,1.33.71,2.49,2.12,3.47,1.41.98,4.5,2.43,9.27,4.35,4.25,1.73,7.36,3.34,9.34,4.83,1.98,1.5,3.44,3.22,4.38,5.18.94,1.95,1.41,4.28,1.41,6.98Z"/>
      <path class="cls-5" d="M811.36,20.33c0-4.85,2.69-7.28,8.08-7.28s8.08,2.43,8.08,7.28c0,2.31-.67,4.11-2.02,5.4-1.35,1.29-3.37,1.93-6.06,1.93-5.38,0-8.08-2.44-8.08-7.32ZM826.77,89.11h-15v-55h15v55Z"/>
      <path class="cls-5" d="M865.32,77.62c2.63,0,5.78-.57,9.45-1.71v12.08c-3.74,1.66-8.33,2.49-13.78,2.49-6,0-10.37-1.5-13.11-4.52-2.74-3.01-4.11-7.53-4.11-13.55v-26.32h-7v-6.35l8.2-5.02,4.29-11.62h9.51v11h15v11h-15v26.32c0,2.12.6,3.68,1.8,4.69,1.2,1.01,2.78,1.51,4.75,1.51Z"/>
      <path class="cls-5" d="M877.38,34.11h16.17l10.22,30.57c.87,2.66,1.47,5.8,1.79,9.43h.29c.35-3.34,1.05-6.48,2.08-9.43l10.02-30.57h15.83l-22.9,61.29c-2.1,5.67-5.09,9.91-8.98,12.73-3.89,2.82-8.43,4.23-13.63,4.23-2.55,0-5.05-.28-7.51-.83v-11.76c1.77.42,3.71.63,5.81.63,2.61,0,4.9-.8,6.85-2.41,1.95-1.6,3.48-4.03,4.58-7.27l.87-2.67-21.5-53.95Z"/>
    </g>
  </g>
</svg>